<?xml version="1.0" encoding="utf-8"?>
<!-- Generator: Adobe Illustrator 19.0.0, SVG Export Plug-In . SVG Version: 6.00 Build 0)  -->
<svg version="1.0" id="Layer_1" xmlns="http://www.w3.org/2000/svg" xmlns:xlink="http://www.w3.org/1999/xlink" x="0px" y="0px"
	 viewBox="-190 528 315 25" style="enable-background:new -190 528 315 25;" xml:space="preserve">
<style type="text/css">
	.st0{fill:#F5F0ED;stroke:#F5F0ED;strokeWidth:1.162;}
</style>
<title>GUN &amp; Thighs Home</title>
<g>
	<path id="XMLID_4369_" class="st0" d="M-144.7,529c4.4,0,6.3,2,6.3,5.6v0.8h-4.8v-0.8c0-0.4-0.4-0.8-1.6-0.8h-9.9
		c-1.2,0-1.6,0.4-1.6,0.8v11.5c0,0.4,0.4,0.8,1.6,0.8h9.9c1.2,0,1.6-0.4,1.6-0.8v-3.2h-9.1v-4.8h13.9v7.9c0,4-2,5.6-6.3,5.6h-9.5
		c-4.4,0-6.3-2-6.3-5.6v-11.5c0-4,2-5.6,6.3-5.6H-144.7z"/>
	<path id="XMLID_4371_" class="st0" d="M-119.3,546.8c1.2,0,1.6-0.4,1.6-0.8V529h4.8v17.1c0,4-2,5.6-6.3,5.6h-9.9
		c-4.4,0-6.3-2-6.3-5.6V529h4.8v17.1c0,0.4,0.4,0.8,1.6,0.8H-119.3z"/>
	<path id="XMLID_4373_" class="st0" d="M-105.5,536.5V552l-5.2-0.4V529h5.2l12.7,15.5V529h4.8v22.6h-5.2L-105.5,536.5z"/>
	<path id="XMLID_4375_" class="st0" d="M-69,529c4.4,0,6.3,2,6.3,5.6v0.8h-4.8v-0.8c0-0.4-0.4-0.8-1.6-0.8h-9.9
		c-1.2,0-1.6,0.4-1.6,0.8v2.4c0,0.4,0.4,0.8,1.6,0.8h9.9c4.4,0,6.3,2,6.3,5.6v2.4c0,4-2,5.6-6.3,5.6l-9.9,0.4c-4.4,0-6.3-2-6.3-5.6
		v-0.8h4.8v0.8c0,0.4,0.4,0.8,1.6,0.8h9.9c1.2,0,1.6-0.4,1.6-0.8v-2.4c0-0.4-0.4-0.8-1.6-0.8h-9.9c-4.4,0-6.3-2-6.3-5.6v-2.4
		c0-4,2-5.6,6.3-5.6L-69,529z"/>
	<path id="XMLID_4377_" class="st0" d="M-48.8,535.3h4.8v3.6h-4.8c-0.8,0-1.2,0-1.2,0.4v1.6c0,0.4,0.4,0.4,1.2,0.4h5.9v-1.2h3.6v1.2
		h1.2v3.6h-1.2v2.4c0,0.4,0.4,0.4,1.2,0.4v3.6c-0.8,0-2-0.4-2.8-0.8c-1.2,0.8-2.4,1.2-3.2,1.2h-4.8c-3.2,0-4.8-1.2-4.8-4v-1.6
		c0-0.8,0.4-1.6,0.8-2.4c-0.4-0.8-0.8-1.2-0.8-2.4v-1.6C-53.1,536.9-51.9,535.3-48.8,535.3z M-42.8,545.3h-5.9c-0.8,0-1.2,0-1.2,0.4
		v1.6c0,0.4,0.4,0.4,1.2,0.4h4.8c0.8,0,1.2,0,1.2-0.4V545.3z"/>
	<path id="XMLID_4380_" class="st0" d="M-21.4,533.8v17.8h-4.8v-17.8h-9.1V529h22.6v4.8H-21.4z"/>
	<path id="XMLID_4382_" class="st0" d="M-9.9,529h4.8v9.1H7.9V529h4.8v22.6H7.9v-9.1H-5.1v9.1h-4.8V529z"/>
	<path id="XMLID_4384_" class="st0" d="M20.2,529v22.6h-4.8V529H20.2z"/>
	<path id="XMLID_4386_" class="st0" d="M38.9,529c4.4,0,6.3,2,6.3,5.6v0.8h-4.8v-0.8c0-0.4-0.4-0.8-1.6-0.8H29
		c-1.2,0-1.6,0.4-1.6,0.8v11.5c0,0.4,0.4,0.8,1.6,0.8h9.9c1.2,0,1.6-0.4,1.6-0.8v-3.2h-9.1v-4.8h13.9v7.9c0,4-2,5.6-6.3,5.6H29
		c-4.4,0-6.3-2-6.3-5.6v-11.5c0-4,2-5.6,6.3-5.6H38.9z"/>
	<path id="XMLID_4388_" class="st0" d="M47.6,529h4.8v9.1h13.1V529h4.8v22.6h-4.8v-9.1H52.4v9.1h-4.8V529z"/>
	<path id="XMLID_4390_" class="st0" d="M89.2,529c4.4,0,6.3,2,6.3,5.6v0.8h-4.8v-0.8c0-0.4-0.4-0.8-1.6-0.8h-9.9
		c-1.2,0-1.6,0.4-1.6,0.8v2.4c0,0.4,0.4,0.8,1.6,0.8h9.9c4.4,0,6.3,2,6.3,5.6v2.4c0,4-2,5.6-6.3,5.6h-9.9c-4.4,0-6.3-2-6.3-5.6v-0.8
		h4.8v0.8c0,0.4,0.4,0.8,1.6,0.8h9.9c1.2,0,1.6-0.4,1.6-0.8v-2.4c0-0.4-0.4-0.8-1.6-0.8h-9.9c-4.4,0-6.3-2-6.3-5.6v-2.4
		c0-4,2-5.6,6.3-5.6H89.2z"/>
</g>
</svg>
