<?xml version="1.0" encoding="iso-8859-1"?>
<!-- Generator: Adobe Illustrator 19.0.0, SVG Export Plug-In . SVG Version: 6.00 Build 0)  -->
<svg version="1.1" id="Layer_1" xmlns="http://www.w3.org/2000/svg" xmlns:xlink="http://www.w3.org/1999/xlink" x="0px" y="0px"
	 viewBox="0 0 111.224 298" style="enable-background:new 0 0 111.224 298;" xml:space="preserve">
<g id="XMLID_183_">
	<polygon id="XMLID_189_" style="fill:#FFFFFF;" points="106.49,70.91 106.49,130.58 5.49,59.67 5.49,0 	"/>
	<polygon id="XMLID_188_" style="fill:#FFFFFF;" points="5.49,84.04 106.49,154.95 106.49,214.62 5.49,143.71 	"/>
	<polygon id="XMLID_187_" style="fill:#FFFFFF;" points="5.77,168.28 106.49,238.99 106.49,298 105.032,298 5.49,227.95 
		5.49,168.08 	"/>
	<polygon id="XMLID_186_" style="fill:#FFFFFF;" points="106.49,70.91 106.49,130.58 5.49,59.67 5.49,0 	"/>
	<polygon id="XMLID_185_" style="fill:#FFFFFF;" points="106.49,154.95 106.49,214.62 5.49,143.71 5.49,84.04 	"/>
	<polygon id="XMLID_184_" style="fill:#FFFFFF;" points="106.49,238.99 106.49,298 105.502,298 105.032,297.785 5.581,227.893 
		5.49,227.75 5.49,168.08 5.77,168.28 	"/>
</g>
</svg>
